{
  "accessors": [
    {
      "bufferView": 2,
      "componentType": 5126,
      "count": 65532,
      "max": [
        183.29893493652344,
        88.0,
        78.02848815917969
      ],
      "min": [
        -156.88223266601563,
        -1.1733197169405685e-07,
        -94.02850341796875
      ],
      "type": "VEC3"
    },
    {
      "bufferView": 2,
      "byteOffset": 786384,
      "componentType": 5126,
      "count": 65532,
      "max": [
        0.9995976686477661,
        1.0,
        0.9999701976776123
      ],
      "min": [
        -0.9999725818634033,
        -1.0,
        -0.9999788999557495
      ],
      "type": "VEC3"
    },
    {
      "bufferView": 1,
      "componentType": 5126,
      "count": 65532,
      "max": [
        0.9874860644340515,
        0.9859912991523743
      ],
      "min": [
        0.00390625,
        0.003907288424670696
      ],
      "type": "VEC2"
    },
    {
      "bufferView": 0,
      "componentType": 5125,
      "count": 318783,
      "type": "SCALAR"
    },
    {
      "bufferView": 2,
      "byteOffset": 1572768,
      "componentType": 5126,
      "count": 4649,
      "max": [
        175.4473419189453,
        82.769287109375,
        4.480014801025391
      ],
      "min": [
        12.417487144470215,
        7.984701156616211,
        -79.353515625
      ],
      "type": "VEC3"
    },
    {
      "bufferView": 2,
      "byteOffset": 1628556,
      "componentType": 5126,
      "count": 4649,
      "max": [
        0.9668630361557007,
        0.9999454021453857,
        0.9701763987541199
      ],
      "min": [
        -0.9748457670211792,
        -0.999997079372406,
        -0.9999886155128479
      ],
      "type": "VEC3"
    },
    {
      "bufferView": 1,
      "byteOffset": 524256,
      "componentType": 5126,
      "count": 4649,
      "max": [
        0.6313902735710144,
        0.33089736104011536
      ],
      "min": [
        0.05913878604769707,
        0.019292114302515984
      ],
      "type": "VEC2"
    },
    {
      "bufferView": 0,
      "byteOffset": 1275132,
      "componentType": 5125,
      "count": 23517,
      "type": "SCALAR"
    }
  ],
  "asset": {
    "extras": {
      "author": "Panda (https://sketchfab.com/Panda_..)",
      "license": "CC-BY-4.0 (http://creativecommons.org/licenses/by/4.0/)",
      "source": "https://sketchfab.com/3d-models/sofa-set-d577f3c3ffa045fa8dd640fc54b6ed88",
      "title": "Sofa Set"
    },
    "generator": "Sketchfab-15.97.0",
    "version": "2.0"
  },
  "bufferViews": [
    {
      "buffer": 0,
      "byteLength": 1369200,
      "name": "floatBufferViews",
      "target": 34963
    },
    {
      "buffer": 0,
      "byteLength": 561448,
      "byteOffset": 1369200,
      "byteStride": 8,
      "name": "floatBufferViews",
      "target": 34962
    },
    {
      "buffer": 0,
      "byteLength": 1684344,
      "byteOffset": 1930648,
      "byteStride": 12,
      "name": "floatBufferViews",
      "target": 34962
    }
  ],
  "buffers": [
    {
      "byteLength": 3614992,
      "uri": "scene.bin"
    }
  ],
  "materials": [
    {
      "doubleSided": true,
      "name": "ASSET_MAT_MR",
      "pbrMetallicRoughness": {
        "baseColorFactor": [
          0.5,
          0.5,
          0.5,
          1.0
        ],
        "metallicFactor": 0.0,
        "roughnessFactor": 0.6
      }
    }
  ],
  "meshes": [
    {
      "name": "polySurface2267_ASSET_MAT_MR_0",
      "primitives": [
        {
          "attributes": {
            "NORMAL": 1,
            "POSITION": 0,
            "TEXCOORD_0": 2
          },
          "indices": 3,
          "material": 0,
          "mode": 4
        }
      ]
    },
    {
      "name": "polySurface2267_ASSET_MAT_MR_0",
      "primitives": [
        {
          "attributes": {
            "NORMAL": 5,
            "POSITION": 4,
            "TEXCOORD_0": 6
          },
          "indices": 7,
          "material": 0,
          "mode": 4
        }
      ]
    }
  ],
  "nodes": [
    {
      "children": [
        1
      ],
      "matrix": [
        1.0,
        0.0,
        0.0,
        0.0,
        0.0,
        2.220446049250313e-16,
        -1.0,
        0.0,
        0.0,
        1.0,
        2.220446049250313e-16,
        0.0,
        0.0,
        0.0,
        0.0,
        1.0
      ],
      "name": "Sketchfab_model"
    },
    {
      "children": [
        2
      ],
      "matrix": [
        0.009999999776482582,
        0.0,
        0.0,
        0.0,
        0.0,
        0.0,
        0.009999999776482582,
        0.0,
        0.0,
        -0.009999999776482582,
        0.0,
        0.0,
        0.0,
        0.0,
        0.0,
        1.0
      ],
      "name": "28de70be7d6c40588a21bd1acd2f1315.fbx"
    },
    {
      "children": [
        3
      ],
      "name": "RootNode"
    },
    {
      "children": [
        4,
        5
      ],
      "name": "polySurface2267"
    },
    {
      "mesh": 0,
      "name": "polySurface2267_ASSET_MAT_MR_0"
    },
    {
      "mesh": 1,
      "name": "polySurface2267_ASSET_MAT_MR_0"
    }
  ],
  "scene": 0,
  "scenes": [
    {
      "name": "Sketchfab_Scene",
      "nodes": [
        0
      ]
    }
  ]
}
