{
  "accessors": [
    {
      "bufferView": 2,
      "componentType": 5126,
      "count": 150,
      "max": [
        1.0367939472198486,
        0.6033390164375305,
        0.7705100178718567
      ],
      "min": [
        -1.0368059873580933,
        -0.6926609873771667,
        0.7316300272941589
      ],
      "type": "VEC3"
    },
    {
      "bufferView": 2,
      "byteOffset": 1800,
      "componentType": 5126,
      "count": 150,
      "max": [
        1.0,
        1.0,
        1.0
      ],
      "min": [
        -1.0,
        -1.0,
        -1.0
      ],
      "type": "VEC3"
    },
    {
      "bufferView": 3,
      "componentType": 5126,
      "count": 150,
      "max": [
        0.9612402319908142,
        1.0,
        1.0,
        1.0
      ],
      "min": [
        -0.9610777497291565,
        -1.0,
        -1.0,
        1.0
      ],
      "type": "VEC4"
    },
    {
      "bufferView": 1,
      "componentType": 5126,
      "count": 150,
      "max": [
        1.8760650157928467,
        1.1057029962539673
      ],
      "min": [
        -0.17204800248146057,
        -0.5606250166893005
      ],
      "type": "VEC2"
    },
    {
      "bufferView": 0,
      "componentType": 5125,
      "count": 492,
      "type": "SCALAR"
    },
    {
      "bufferView": 2,
      "byteOffset": 3600,
      "componentType": 5126,
      "count": 1104,
      "max": [
        0.8594340085983276,
        0.449084997177124,
        0.7330700159072876
      ],
      "min": [
        -0.8594470024108887,
        -0.5443050265312195,
        0.0714230015873909
      ],
      "type": "VEC3"
    },
    {
      "bufferView": 2,
      "byteOffset": 16848,
      "componentType": 5126,
      "count": 1104,
      "max": [
        1.0,
        1.0,
        1.0
      ],
      "min": [
        -1.0,
        -1.0,
        -1.0
      ],
      "type": "VEC3"
    },
    {
      "bufferView": 3,
      "byteOffset": 2400,
      "componentType": 5126,
      "count": 1104,
      "max": [
        1.0,
        1.0,
        1.0,
        1.0
      ],
      "min": [
        -1.0,
        -1.0,
        -1.0,
        -1.0
      ],
      "type": "VEC4"
    },
    {
      "bufferView": 1,
      "byteOffset": 1200,
      "componentType": 5126,
      "count": 1104,
      "max": [
        0.9345939755439758,
        1.482638955116272
      ],
      "min": [
        0.0,
        -0.767441987991333
      ],
      "type": "VEC2"
    },
    {
      "bufferView": 0,
      "byteOffset": 1968,
      "componentType": 5125,
      "count": 4164,
      "type": "SCALAR"
    },
    {
      "bufferView": 2,
      "byteOffset": 30096,
      "componentType": 5126,
      "count": 6492,
      "max": [
        0.8879939913749695,
        0.48333901166915894,
        0.7342349886894226
      ],
      "min": [
        -0.8880059719085693,
        -0.5726609826087952,
        0.011525999754667282
      ],
      "type": "VEC3"
    },
    {
      "bufferView": 2,
      "byteOffset": 108000,
      "componentType": 5126,
      "count": 6492,
      "max": [
        1.0,
        1.0,
        1.0
      ],
      "min": [
        -1.0,
        -1.0,
        -1.0
      ],
      "type": "VEC3"
    },
    {
      "bufferView": 3,
      "byteOffset": 20064,
      "componentType": 5126,
      "count": 6492,
      "max": [
        1.0,
        1.0,
        0.9804009795188904,
        1.0
      ],
      "min": [
        -1.0,
        -1.0,
        -0.9803990125656128,
        1.0
      ],
      "type": "VEC4"
    },
    {
      "bufferView": 1,
      "byteOffset": 10032,
      "componentType": 5126,
      "count": 6492,
      "max": [
        0.9500640034675598,
        0.8768939971923828
      ],
      "min": [
        -0.08594699949026108,
        0.05214200168848038
      ],
      "type": "VEC2"
    },
    {
      "bufferView": 0,
      "byteOffset": 18624,
      "componentType": 5125,
      "count": 30912,
      "type": "SCALAR"
    }
  ],
  "asset": {
    "extras": {
      "author": "Doggernaut (https://sketchfab.com/Doggernaut)",
      "license": "CC-BY-4.0 (http://creativecommons.org/licenses/by/4.0/)",
      "source": "https://sketchfab.com/3d-models/wooden-table-63d7da3b2c3b46db91c848414a33a272",
      "title": "Wooden Table"
    },
    "generator": "Sketchfab-12.67.0",
    "version": "2.0"
  },
  "bufferViews": [
    {
      "buffer": 0,
      "byteLength": 142272,
      "name": "floatBufferViews",
      "target": 34963
    },
    {
      "buffer": 0,
      "byteLength": 61968,
      "byteOffset": 142272,
      "byteStride": 8,
      "name": "floatBufferViews",
      "target": 34962
    },
    {
      "buffer": 0,
      "byteLength": 185904,
      "byteOffset": 204240,
      "byteStride": 12,
      "name": "floatBufferViews",
      "target": 34962
    },
    {
      "buffer": 0,
      "byteLength": 123936,
      "byteOffset": 390144,
      "byteStride": 16,
      "name": "floatBufferViews",
      "target": 34962
    }
  ],
  "buffers": [
    {
      "byteLength": 514080,
      "uri": "scene.bin"
    }
  ],
  "images": [
    {
      "uri": "textures/Quarrels_baseColor.png"
    },
    {
      "uri": "textures/Quarrels_metallicRoughness.png"
    },
    {
      "uri": "textures/Quarrels_normal.png"
    }
  ],
  "materials": [
    {
      "doubleSided": true,
      "name": "Quarrels",
      "normalTexture": {
        "index": 2
      },
      "pbrMetallicRoughness": {
        "baseColorTexture": {
          "index": 0
        },
        "metallicFactor": 0.0,
        "metallicRoughnessTexture": {
          "index": 1
        }
      }
    },
    {
      "doubleSided": true,
      "name": "Stem",
      "normalTexture": {
        "index": 2
      },
      "pbrMetallicRoughness": {
        "baseColorTexture": {
          "index": 0
        },
        "metallicFactor": 0.0,
        "metallicRoughnessTexture": {
          "index": 1
        }
      }
    },
    {
      "doubleSided": true,
      "name": "Tabletop",
      "normalTexture": {
        "index": 2
      },
      "pbrMetallicRoughness": {
        "baseColorTexture": {
          "index": 0
        },
        "metallicFactor": 0.0,
        "metallicRoughnessTexture": {
          "index": 1
        }
      }
    }
  ],
  "meshes": [
    {
      "name": "Object_0",
      "primitives": [
        {
          "attributes": {
            "NORMAL": 1,
            "POSITION": 0,
            "TANGENT": 2,
            "TEXCOORD_0": 3
          },
          "indices": 4,
          "material": 2,
          "mode": 4
        }
      ]
    },
    {
      "name": "Object_1",
      "primitives": [
        {
          "attributes": {
            "NORMAL": 6,
            "POSITION": 5,
            "TANGENT": 7,
            "TEXCOORD_0": 8
          },
          "indices": 9,
          "material": 0,
          "mode": 4
        }
      ]
    },
    {
      "name": "Object_2",
      "primitives": [
        {
          "attributes": {
            "NORMAL": 11,
            "POSITION": 10,
            "TANGENT": 12,
            "TEXCOORD_0": 13
          },
          "indices": 14,
          "material": 1,
          "mode": 4
        }
      ]
    }
  ],
  "nodes": [
    {
      "children": [
        1
      ],
      "matrix": [
        0.24996383488178253,
        0.0,
        0.0,
        0.0,
        0.0,
        5.550312096187116e-17,
        -0.24996383488178253,
        0.0,
        0.0,
        0.24996383488178253,
        5.550312096187116e-17,
        0.0,
        0.0,
        0.0,
        0.0,
        1.0
      ],
      "name": "Sketchfab_model"
    },
    {
      "children": [
        2,
        3,
        4
      ],
      "name": "Table.obj.cleaner.materialmerger.gles"
    },
    {
      "mesh": 0,
      "name": "Object_2"
    },
    {
      "mesh": 1,
      "name": "Object_3"
    },
    {
      "mesh": 2,
      "name": "Object_4"
    }
  ],
  "samplers": [
    {
      "magFilter": 9729,
      "minFilter": 9987,
      "wrapS": 10497,
      "wrapT": 10497
    }
  ],
  "scene": 0,
  "scenes": [
    {
      "name": "Sketchfab_Scene",
      "nodes": [
        0
      ]
    }
  ],
  "textures": [
    {
      "sampler": 0,
      "source": 0
    },
    {
      "sampler": 0,
      "source": 1
    },
    {
      "sampler": 0,
      "source": 2
    }
  ]
}
