{
  "accessors": [
    {
      "bufferView": 2,
      "componentType": 5126,
      "count": 1218,
      "max": [
        1758.229248046875,
        -3740.44482421875,
        1449.2523193359375
      ],
      "min": [
        -193.77659606933594,
        -5916.45068359375,
        0.0
      ],
      "type": "VEC3"
    },
    {
      "bufferView": 2,
      "byteOffset": 14616,
      "componentType": 5126,
      "count": 1218,
      "max": [
        1.0,
        1.0,
        1.0
      ],
      "min": [
        -1.0,
        -1.0,
        -1.0
      ],
      "type": "VEC3"
    },
    {
      "bufferView": 1,
      "componentType": 5126,
      "count": 1218,
      "max": [
        0.9950000047683716,
        0.9886000156402588
      ],
      "min": [
        0.004999999888241291,
        0.004999999888241291
      ],
      "type": "VEC2"
    },
    {
      "bufferView": 0,
      "componentType": 5125,
      "count": 2850,
      "type": "SCALAR"
    },
    {
      "bufferView": 2,
      "byteOffset": 29232,
      "componentType": 5126,
      "count": 368,
      "max": [
        1774.6195068359375,
        -5066.62451171875,
        742.934814453125
      ],
      "min": [
        -174.54820251464844,
        -5870.3623046875,
        320.7453918457031
      ],
      "type": "VEC3"
    },
    {
      "bufferView": 2,
      "byteOffset": 33648,
      "componentType": 5126,
      "count": 368,
      "max": [
        0.990976870059967,
        0.9929153919219971,
        0.9999510049819946
      ],
      "min": [
        -0.9923661351203918,
        -0.9947288036346436,
        -0.9998494982719421
      ],
      "type": "VEC3"
    },
    {
      "bufferView": 1,
      "byteOffset": 9744,
      "componentType": 5126,
      "count": 368,
      "max": [
        0.9926000237464905,
        0.9937000274658203
      ],
      "min": [
        0.0052999998442828655,
        0.02199999988079071
      ],
      "type": "VEC2"
    },
    {
      "bufferView": 0,
      "byteOffset": 11400,
      "componentType": 5125,
      "count": 666,
      "type": "SCALAR"
    },
    {
      "bufferView": 2,
      "byteOffset": 38064,
      "componentType": 5126,
      "count": 19318,
      "max": [
        1881.8668212890625,
        -3893.016845703125,
        766.1397705078125
      ],
      "min": [
        -292.46728515625,
        -5893.1474609375,
        318.7452087402344
      ],
      "type": "VEC3"
    },
    {
      "bufferView": 2,
      "byteOffset": 269880,
      "componentType": 5126,
      "count": 19318,
      "max": [
        0.9999884366989136,
        0.9999973773956299,
        0.9999998807907104
      ],
      "min": [
        -0.9999933242797852,
        -0.9999996423721313,
        -1.0
      ],
      "type": "VEC3"
    },
    {
      "bufferView": 1,
      "byteOffset": 12688,
      "componentType": 5126,
      "count": 19318,
      "max": [
        0.9944999814033508,
        0.9950000047683716
      ],
      "min": [
        0.004999999888241291,
        0.004999999888241291
      ],
      "type": "VEC2"
    },
    {
      "bufferView": 0,
      "byteOffset": 14064,
      "componentType": 5125,
      "count": 82974,
      "type": "SCALAR"
    },
    {
      "bufferView": 2,
      "byteOffset": 501696,
      "componentType": 5126,
      "count": 39687,
      "max": [
        1414.8321533203125,
        -4507.443359375,
        908.3005981445313
      ],
      "min": [
        280.1213073730469,
        -5531.923828125,
        701.2327270507813
      ],
      "type": "VEC3"
    },
    {
      "bufferView": 2,
      "byteOffset": 977940,
      "componentType": 5126,
      "count": 39687,
      "max": [
        0.9999836683273315,
        0.999995231628418,
        0.9999827146530151
      ],
      "min": [
        -0.9999924898147583,
        -0.9999854564666748,
        -0.9999836683273315
      ],
      "type": "VEC3"
    },
    {
      "bufferView": 1,
      "byteOffset": 167232,
      "componentType": 5126,
      "count": 39687,
      "max": [
        0.9939000010490417,
        0.9937999844551086
      ],
      "min": [
        0.004999999888241291,
        0.007699999958276749
      ],
      "type": "VEC2"
    },
    {
      "bufferView": 0,
      "byteOffset": 345960,
      "componentType": 5125,
      "count": 184920,
      "type": "SCALAR"
    },
    {
      "bufferView": 2,
      "byteOffset": 1454184,
      "componentType": 5126,
      "count": 8907,
      "max": [
        1695.447998046875,
        -3893.01513671875,
        710.4688720703125
      ],
      "min": [
        -121.00019836425781,
        -5868.38525390625,
        290.997314453125
      ],
      "type": "VEC3"
    },
    {
      "bufferView": 2,
      "byteOffset": 1561068,
      "componentType": 5126,
      "count": 8907,
      "max": [
        0.9999195337295532,
        0.9999911785125732,
        0.9999997615814209
      ],
      "min": [
        -0.9999940395355225,
        -0.9999923706054688,
        -1.0
      ],
      "type": "VEC3"
    },
    {
      "bufferView": 1,
      "byteOffset": 484728,
      "componentType": 5126,
      "count": 8907,
      "max": [
        0.9940000176429749,
        0.97079998254776
      ],
      "min": [
        0.004999999888241291,
        0.004999999888241291
      ],
      "type": "VEC2"
    },
    {
      "bufferView": 0,
      "byteOffset": 1085640,
      "componentType": 5125,
      "count": 44178,
      "type": "SCALAR"
    },
    {
      "bufferView": 2,
      "byteOffset": 1667952,
      "componentType": 5126,
      "count": 50456,
      "max": [
        1821.531005859375,
        -4357.78857421875,
        732.1243286132813
      ],
      "min": [
        -135.94520568847656,
        -5173.90673828125,
        245.96969604492188
      ],
      "type": "VEC3"
    },
    {
      "bufferView": 2,
      "byteOffset": 2273424,
      "componentType": 5126,
      "count": 50456,
      "max": [
        0.9999903440475464,
        0.9999912977218628,
        1.0
      ],
      "min": [
        -0.9999523162841797,
        -0.9999998807907104,
        -0.9999997615814209
      ],
      "type": "VEC3"
    },
    {
      "bufferView": 1,
      "byteOffset": 555984,
      "componentType": 5126,
      "count": 50456,
      "max": [
        0.9940000176429749,
        0.9950000047683716
      ],
      "min": [
        0.004999999888241291,
        0.004999999888241291
      ],
      "type": "VEC2"
    },
    {
      "bufferView": 0,
      "byteOffset": 1262352,
      "componentType": 5125,
      "count": 253746,
      "type": "SCALAR"
    },
    {
      "bufferView": 2,
      "byteOffset": 2878896,
      "componentType": 5126,
      "count": 148,
      "max": [
        1755.219482421875,
        -3743.45068359375,
        1446.25
      ],
      "min": [
        -190.77859497070313,
        -5916.45458984375,
        6.0
      ],
      "type": "VEC3"
    },
    {
      "bufferView": 2,
      "byteOffset": 2880672,
      "componentType": 5126,
      "count": 148,
      "max": [
        0.6889950633049011,
        0.627364993095398,
        0.6180128455162048
      ],
      "min": [
        -0.6889950633049011,
        -0.722294807434082,
        -0.6180128455162048
      ],
      "type": "VEC3"
    },
    {
      "bufferView": 1,
      "byteOffset": 959632,
      "componentType": 5126,
      "count": 148,
      "max": [
        0.9911999702453613,
        0.9772999882698059
      ],
      "min": [
        0.004999999888241291,
        0.004999999888241291
      ],
      "type": "VEC2"
    },
    {
      "bufferView": 0,
      "byteOffset": 2277336,
      "componentType": 5125,
      "count": 252,
      "type": "SCALAR"
    },
    {
      "bufferView": 2,
      "byteOffset": 2882448,
      "componentType": 5126,
      "count": 11079,
      "max": [
        50.23379898071289,
        -4360.26806640625,
        718.1217041015625
      ],
      "min": [
        -252.69129943847656,
        -5170.13330078125,
        254.64259338378906
      ],
      "type": "VEC3"
    },
    {
      "bufferView": 2,
      "byteOffset": 3015396,
      "componentType": 5126,
      "count": 11079,
      "max": [
        0.9998463988304138,
        0.9999445676803589,
        0.9993534088134766
      ],
      "min": [
        -0.9999420642852783,
        -0.999954342842102,
        -0.9995895028114319
      ],
      "type": "VEC3"
    },
    {
      "bufferView": 1,
      "byteOffset": 960816,
      "componentType": 5126,
      "count": 11079,
      "max": [
        0.9817000031471252,
        0.9811000227928162
      ],
      "min": [
        0.004999999888241291,
        0.012900000438094139
      ],
      "type": "VEC2"
    },
    {
      "bufferView": 0,
      "byteOffset": 2278344,
      "componentType": 5125,
      "count": 50838,
      "type": "SCALAR"
    },
    {
      "bufferView": 2,
      "byteOffset": 3148344,
      "componentType": 5126,
      "count": 65532,
      "max": [
        1575.446533203125,
        -3840.8369140625,
        1036.322998046875
      ],
      "min": [
        -20.22920036315918,
        -4569.60986328125,
        691.2811279296875
      ],
      "type": "VEC3"
    },
    {
      "bufferView": 2,
      "byteOffset": 3934728,
      "componentType": 5126,
      "count": 65532,
      "max": [
        0.9999970197677612,
        0.9999940395355225,
        0.9999508857727051
      ],
      "min": [
        -0.9999361038208008,
        -0.9999934434890747,
        -0.9999978542327881
      ],
      "type": "VEC3"
    },
    {
      "bufferView": 1,
      "byteOffset": 1049448,
      "componentType": 5126,
      "count": 65532,
      "max": [
        0.9894999861717224,
        0.9950000047683716
      ],
      "min": [
        0.004999999888241291,
        0.004999999888241291
      ],
      "type": "VEC2"
    },
    {
      "bufferView": 0,
      "byteOffset": 2481696,
      "componentType": 5125,
      "count": 313944,
      "type": "SCALAR"
    },
    {
      "bufferView": 2,
      "byteOffset": 4721112,
      "componentType": 5126,
      "count": 11916,
      "max": [
        1579.957763671875,
        -3842.12744140625,
        1036.666748046875
      ],
      "min": [
        -2.205699920654297,
        -4138.83203125,
        691.027099609375
      ],
      "type": "VEC3"
    },
    {
      "bufferView": 2,
      "byteOffset": 4864104,
      "componentType": 5126,
      "count": 11916,
      "max": [
        0.9999785423278809,
        0.9999854564666748,
        0.9999679327011108
      ],
      "min": [
        -0.9999568462371826,
        -0.999993085861206,
        -0.9998868703842163
      ],
      "type": "VEC3"
    },
    {
      "bufferView": 1,
      "byteOffset": 1573704,
      "componentType": 5126,
      "count": 11916,
      "max": [
        0.987500011920929,
        0.9828000068664551
      ],
      "min": [
        0.004999999888241291,
        0.004999999888241291
      ],
      "type": "VEC2"
    },
    {
      "bufferView": 0,
      "byteOffset": 3737472,
      "componentType": 5125,
      "count": 54696,
      "type": "SCALAR"
    },
    {
      "bufferView": 2,
      "byteOffset": 5007096,
      "componentType": 5126,
      "count": 512,
      "max": [
        1705.231201171875,
        -3883.45458984375,
        422.0
      ],
      "min": [
        -140.77859497070313,
        -5919.45458984375,
        0.0
      ],
      "type": "VEC3"
    },
    {
      "bufferView": 2,
      "byteOffset": 5013240,
      "componentType": 5126,
      "count": 512,
      "max": [
        1.0,
        1.0,
        1.0
      ],
      "min": [
        -1.0,
        -1.0,
        -1.0
      ],
      "type": "VEC3"
    },
    {
      "bufferView": 1,
      "byteOffset": 1669032,
      "componentType": 5126,
      "count": 512,
      "max": [
        0.9950000047683716,
        0.9592000246047974
      ],
      "min": [
        0.004999999888241291,
        0.004999999888241291
      ],
      "type": "VEC2"
    },
    {
      "bufferView": 0,
      "byteOffset": 3956256,
      "componentType": 5125,
      "count": 1164,
      "type": "SCALAR"
    }
  ],
  "asset": {
    "extras": {
      "author": "HLB Milano (https://sketchfab.com/hlbmilano)",
      "license": "CC-BY-NC-4.0 (http://creativecommons.org/licenses/by-nc/4.0/)",
      "source": "https://sketchfab.com/3d-models/hlb-milano-k-bed-51e1bb637dfc4a8e8ad4b78d8cfd736d",
      "title": "HLB Milano - \"K-Bed\""
    },
    "generator": "Sketchfab-12.68.0",
    "version": "2.0"
  },
  "bufferViews": [
    {
      "buffer": 0,
      "byteLength": 3960912,
      "name": "floatBufferViews",
      "target": 34963
    },
    {
      "buffer": 0,
      "byteLength": 1673128,
      "byteOffset": 3960912,
      "byteStride": 8,
      "name": "floatBufferViews",
      "target": 34962
    },
    {
      "buffer": 0,
      "byteLength": 5019384,
      "byteOffset": 5634040,
      "byteStride": 12,
      "name": "floatBufferViews",
      "target": 34962
    }
  ],
  "buffers": [
    {
      "byteLength": 10653424,
      "uri": "scene.bin"
    }
  ],
  "extensionsUsed": [
    "KHR_materials_unlit"
  ],
  "images": [
    {
      "uri": "textures/Object001_mtl_baseColor.jpeg"
    },
    {
      "uri": "textures/Object002_mtl_baseColor.jpeg"
    },
    {
      "uri": "textures/Object003_mtl_baseColor.jpeg"
    },
    {
      "uri": "textures/Object004_mtl_baseColor.jpeg"
    },
    {
      "uri": "textures/Object005_mtl_baseColor.jpeg"
    }
  ],
  "materials": [
    {
      "doubleSided": true,
      "emissiveTexture": {
        "index": 0
      },
      "extensions": {
        "KHR_materials_unlit": {}
      },
      "name": "Object001_mtl",
      "pbrMetallicRoughness": {
        "baseColorTexture": {
          "index": 0
        },
        "metallicFactor": 0.0
      }
    },
    {
      "doubleSided": true,
      "emissiveTexture": {
        "index": 0
      },
      "extensions": {
        "KHR_materials_unlit": {}
      },
      "name": "Object002_mtl",
      "pbrMetallicRoughness": {
        "baseColorTexture": {
          "index": 1
        },
        "metallicFactor": 0.0
      }
    },
    {
      "doubleSided": true,
      "emissiveTexture": {
        "index": 2
      },
      "extensions": {
        "KHR_materials_unlit": {}
      },
      "name": "Object003_mtl",
      "pbrMetallicRoughness": {
        "baseColorTexture": {
          "index": 2
        },
        "metallicFactor": 0.0
      }
    },
    {
      "doubleSided": true,
      "emissiveTexture": {
        "index": 3
      },
      "extensions": {
        "KHR_materials_unlit": {}
      },
      "name": "Object004_mtl",
      "pbrMetallicRoughness": {
        "baseColorTexture": {
          "index": 3
        },
        "metallicFactor": 0.0
      }
    },
    {
      "doubleSided": true,
      "emissiveTexture": {
        "index": 4
      },
      "extensions": {
        "KHR_materials_unlit": {}
      },
      "name": "Object005_mtl",
      "pbrMetallicRoughness": {
        "baseColorTexture": {
          "index": 4
        },
        "metallicFactor": 0.0
      }
    }
  ],
  "meshes": [
    {
      "name": "Object_0",
      "primitives": [
        {
          "attributes": {
            "NORMAL": 1,
            "POSITION": 0,
            "TEXCOORD_0": 2
          },
          "indices": 3,
          "material": 0,
          "mode": 4
        }
      ]
    },
    {
      "name": "Object_1",
      "primitives": [
        {
          "attributes": {
            "NORMAL": 5,
            "POSITION": 4,
            "TEXCOORD_0": 6
          },
          "indices": 7,
          "material": 1,
          "mode": 4
        }
      ]
    },
    {
      "name": "Object_2",
      "primitives": [
        {
          "attributes": {
            "NORMAL": 9,
            "POSITION": 8,
            "TEXCOORD_0": 10
          },
          "indices": 11,
          "material": 1,
          "mode": 4
        }
      ]
    },
    {
      "name": "Object_3",
      "primitives": [
        {
          "attributes": {
            "NORMAL": 13,
            "POSITION": 12,
            "TEXCOORD_0": 14
          },
          "indices": 15,
          "material": 1,
          "mode": 4
        }
      ]
    },
    {
      "name": "Object_4",
      "primitives": [
        {
          "attributes": {
            "NORMAL": 17,
            "POSITION": 16,
            "TEXCOORD_0": 18
          },
          "indices": 19,
          "material": 2,
          "mode": 4
        }
      ]
    },
    {
      "name": "Object_5",
      "primitives": [
        {
          "attributes": {
            "NORMAL": 21,
            "POSITION": 20,
            "TEXCOORD_0": 22
          },
          "indices": 23,
          "material": 2,
          "mode": 4
        }
      ]
    },
    {
      "name": "Object_6",
      "primitives": [
        {
          "attributes": {
            "NORMAL": 25,
            "POSITION": 24,
            "TEXCOORD_0": 26
          },
          "indices": 27,
          "material": 3,
          "mode": 4
        }
      ]
    },
    {
      "name": "Object_7",
      "primitives": [
        {
          "attributes": {
            "NORMAL": 29,
            "POSITION": 28,
            "TEXCOORD_0": 30
          },
          "indices": 31,
          "material": 3,
          "mode": 4
        }
      ]
    },
    {
      "name": "Object_8",
      "primitives": [
        {
          "attributes": {
            "NORMAL": 33,
            "POSITION": 32,
            "TEXCOORD_0": 34
          },
          "indices": 35,
          "material": 3,
          "mode": 4
        }
      ]
    },
    {
      "name": "Object_9",
      "primitives": [
        {
          "attributes": {
            "NORMAL": 37,
            "POSITION": 36,
            "TEXCOORD_0": 38
          },
          "indices": 39,
          "material": 3,
          "mode": 4
        }
      ]
    },
    {
      "name": "Object_10",
      "primitives": [
        {
          "attributes": {
            "NORMAL": 41,
            "POSITION": 40,
            "TEXCOORD_0": 42
          },
          "indices": 43,
          "material": 4,
          "mode": 4
        }
      ]
    }
  ],
  "nodes": [
    {
      "children": [
        1
      ],
      "matrix": [
        1.0,
        0.0,
        0.0,
        0.0,
        0.0,
        2.220446049250313e-16,
        -1.0,
        0.0,
        0.0,
        1.0,
        2.220446049250313e-16,
        0.0,
        0.0,
        0.0,
        0.0,
        1.0
      ],
      "name": "Sketchfab_model"
    },
    {
      "children": [
        2,
        3,
        4,
        5,
        6,
        7,
        8,
        9,
        10,
        11,
        12
      ],
      "name": "HLB Milano - _K-Bed_.obj.cleaner"
    },
    {
      "mesh": 0,
      "name": "Object_2"
    },
    {
      "mesh": 1,
      "name": "Object_3"
    },
    {
      "mesh": 2,
      "name": "Object_4"
    },
    {
      "mesh": 3,
      "name": "Object_5"
    },
    {
      "mesh": 4,
      "name": "Object_6"
    },
    {
      "mesh": 5,
      "name": "Object_7"
    },
    {
      "mesh": 6,
      "name": "Object_8"
    },
    {
      "mesh": 7,
      "name": "Object_9"
    },
    {
      "mesh": 8,
      "name": "Object_10"
    },
    {
      "mesh": 9,
      "name": "Object_11"
    },
    {
      "mesh": 10,
      "name": "Object_12"
    }
  ],
  "samplers": [
    {
      "magFilter": 9729,
      "minFilter": 9987,
      "wrapS": 10497,
      "wrapT": 10497
    }
  ],
  "scene": 0,
  "scenes": [
    {
      "name": "Sketchfab_Scene",
      "nodes": [
        0
      ]
    }
  ],
  "textures": [
    {
      "sampler": 0,
      "source": 0
    },
    {
      "sampler": 0,
      "source": 1
    },
    {
      "sampler": 0,
      "source": 2
    },
    {
      "sampler": 0,
      "source": 3
    },
    {
      "sampler": 0,
      "source": 4
    }
  ]
}
